<svg width="41" height="40" viewBox="0 0 41 40" fill="none" xmlns="http://www.w3.org/2000/svg">
<g opacity="0.4">
<path d="M15.6821 26C14.5821 26 13.6921 26.9 13.6921 28C13.6921 29.1 14.5821 30 15.6821 30C16.7821 30 17.6821 29.1 17.6821 28C17.6821 26.9 16.7821 26 15.6821 26ZM9.68213 10V12H11.6821L15.2821 19.59L13.9321 22.04C13.7721 22.32 13.6821 22.65 13.6821 23C13.6821 24.1 14.5821 25 15.6821 25H27.6821V23H16.1021C15.9621 23 15.8521 22.89 15.8521 22.75L15.8821 22.63L16.7821 21H24.2321C24.9821 21 25.6421 20.59 25.9821 19.97L29.5621 13.48C29.6421 13.34 29.6821 13.17 29.6821 13C29.6821 12.45 29.2321 12 28.6821 12H13.8921L12.9521 10H9.68213ZM25.6821 26C24.5821 26 23.6921 26.9 23.6921 28C23.6921 29.1 24.5821 30 25.6821 30C26.7821 30 27.6821 29.1 27.6821 28C27.6821 26.9 26.7821 26 25.6821 26Z" fill="#666666"/>
</g>
</svg>
