<svg width="41" height="40" viewBox="0 0 41 40" fill="none" xmlns="http://www.w3.org/2000/svg">
<g opacity="0.4">
<path d="M20.6821 11C21.8756 11 23.0202 11.4741 23.8641 12.318C24.708 13.1619 25.1821 14.3065 25.1821 15.5C25.1821 16.6935 24.708 17.8381 23.8641 18.682C23.0202 19.5259 21.8756 20 20.6821 20C19.4887 20 18.3441 19.5259 17.5001 18.682C16.6562 17.8381 16.1821 16.6935 16.1821 15.5C16.1821 14.3065 16.6562 13.1619 17.5001 12.318C18.3441 11.4741 19.4887 11 20.6821 11ZM20.6821 22.25C25.6546 22.25 29.6821 24.2638 29.6821 26.75V29H11.6821V26.75C11.6821 24.2638 15.7096 22.25 20.6821 22.25Z" fill="#686B6F"/>
</g>
</svg>
